cover 
http://static.cinemarx.ro/poze/filme-mari/2010/09/Paranormal_Activity_2_1284811474_2010.jpg

screens
 
http://img268.imageshack.us/img268/4530/paranormalactivity22010.jpg
 
http://img31.imageshack.us/img31/1291/paranormalactivity22010u.jpg
 
http://img541.imageshack.us/img541/4530/paranormalactivity22010.jpg
 
http://img143.imageshack.us/img143/4530/paranormalactivity22010.jpg

Genre:Horror
Language:English
IMDb:http://www.imdb.com/title/tt1536044/
Source:Classified/Cam rip rus.Thx

General
Complete name :Paranormal Activity 2 2010 Cam XviD Feel-Free
Format : AVI
Format/Info : Audio Video Interleave
File size : 596 MiB
Duration : 1h 22mn
Overall bit rate : 1 012 Kbps
Writing library : VirtualDub build 32817/release
Video #0
ID : 0
Format : MPEG-4 Visual
Format profile : AdvancedSimple@L5
Format settings, BVOP : Yes
Format settings, QPel : No
Format settings, GMC : No warppoints
Format settings, Matrix : Default (H.263)
Muxing mode : Packed bitstream
Codec ID : XVID
Codec ID/Hint : XviD
Duration : 1h 22mn
Bit rate : 872 Kbps
Width : 652 pixels
Height : 352 pixels
Display aspect ratio : 1.852
Frame rate : 23.976 fps
Resolution : 24 bits
Colorimetry : 4:2:0
Scan type : Progressive
Bits/(Pixel*Frame) : 0.159
Stream size : 513 MiB (86%)
Writing library : XviD 1.2.1 (UTC 2008-12-04)
Audio #1
ID : 1
Format : MPEG Audio
Format version : Version 1
Format profile : Layer 3
Codec ID : 55
Codec ID/Hint : MP3
Duration : 1h 22mn
Bit rate mode : Constant
Bit rate : 128 Kbps
Channel(s) : 2 channels
Sampling rate : 44.1 KHz
Resolution : 16 bits
Stream size : 75.3 MiB (13%)
Alignment : Aligned on interleaves
Interleave, duration : 26 ms (0.63 video frame)
Interleave, preload duration : 522 ms


Plot:
After experiencing what they think are a series of "break-ins", a family sets up security cameras around their home, only to realize that the events unfolding before them are more sinister than they seem.
